<svg xmlns="http://www.w3.org/2000/svg" width="23" height="20" fill="none"><path fill="#fff" fill-rule="evenodd" d="M7.411 13.195a.667.667 0 0 0-.673.66c0 .363.303.659.674.659h12.219c.372 0 .674.295.674.66 0 .364-.302.66-.674.66H7.412c-1.114 0-2.021-.889-2.021-1.98 0-.812.502-1.511 1.218-1.816L4.176 1.32H.674A.667.667 0 0 1 0 .66C0 .296.302 0 .674 0h4.043c.316 0 .59.215.658.517l.481 2.122h16.47c.212 0 .41.097.538.262.127.166.168.38.11.579l-2.695 9.236a.672.672 0 0 1-.648.478H7.41Zm1.214 2.638c1.132 0 2.054.935 2.054 2.084 0 1.148-.922 2.083-2.054 2.083-1.132 0-2.054-.935-2.054-2.083 0-1.15.922-2.084 2.054-2.084Zm9.857 0c1.133 0 2.054.935 2.054 2.084 0 1.148-.922 2.083-2.054 2.083-1.132 0-2.053-.935-2.053-2.083 0-1.15.92-2.084 2.053-2.084Zm.64-3.958 2.31-7.917H6.157l1.797 7.917h11.17ZM9.31 17.917a.69.69 0 0 0-.685-.695.69.69 0 0 0-.685.695.69.69 0 0 0 .685.694.69.69 0 0 0 .685-.694Zm9.172-.695a.69.69 0 0 1 .685.695.69.69 0 0 1-.685.694.69.69 0 0 1-.684-.694.69.69 0 0 1 .684-.695Z" clip-rule="evenodd"/></svg>