<svg xmlns="http://www.w3.org/2000/svg" width="48" height="48" fill="none"><path fill="#D87D4A" fill-rule="evenodd" d="M42.281 8.438h4.313a1.406 1.406 0 0 1 0 2.812h-1.5v12.656c0 .777-.63 1.407-1.407 1.407h-9.843v15.656c0 .776-.63 1.406-1.407 1.406h-7.36C24.424 45.581 21.583 48 18.187 48H1.407a1.406 1.406 0 0 1 0-2.813h16.78a4.226 4.226 0 0 0 3.978-2.812H8.438a1.406 1.406 0 0 1 0-2.813h4.124c.776 0 1.407-.63 1.407-1.406 0-.775-.631-1.406-1.406-1.406H9.434c-2.558 0-5.061.887-7.048 2.498a1.406 1.406 0 1 1-1.772-2.184 14.053 14.053 0 0 1 7.824-3.09V18.375c0-.777.63-1.406 1.406-1.406h8.531V7.03c0-.776.63-1.406 1.406-1.406h8.341A20.575 20.575 0 0 1 42.264 0h4.33a1.406 1.406 0 0 1 0 2.813h-4.33c-3.459 0-6.767.982-9.606 2.812h5.404c.77 0 1.407.627 1.407 1.406 0 .493-.132.665-.98 1.77-.424.552-1.028 1.338-1.884 2.515a1.15 1.15 0 1 0 1.848 1.37l2.694-3.674a1.406 1.406 0 0 1 1.134-.575Zm-9.843 8.53c.49 0 .92.252 1.172.631 1.831-1.687.655-4.802-1.876-4.802-2.14 0-3.465 2.338-2.38 4.172h3.084Zm-11.25-8.53h14.06c-.233.321-.423.569-.584.778-.353.462-.565.738-.768 1.204-4.216-1.779-8.726 2.057-7.559 6.549h-5.15V8.437Zm1.406 16.968v-5.625H19.78v5.625h2.813Zm8.437 14.157h-14.49c.969-2.735-1.07-5.626-3.979-5.626H11.25V19.782h5.719v7.032c0 .776.63 1.406 1.406 1.406H24c.777 0 1.406-.63 1.406-1.407v-7.03h5.625v19.78Zm2.813-18.834V22.5h8.437V12.222l-1.56 2.127a3.954 3.954 0 0 1-3.424 1.611 5.56 5.56 0 0 1-3.453 4.769Z" clip-rule="evenodd"/></svg>