<svg xmlns="http://www.w3.org/2000/svg" width="143" height="25" fill="none"><path fill="#fff" fill-rule="evenodd" d="M57.975 4.109V0h-4.762v4.109h4.762Zm-16.103 16.29c1.636 0 3.093-.556 4.235-1.519l.456 1.044h3.58V.792H45.36v5.591a6.55 6.55 0 0 0-3.489-.976c-4.309 0-7.378 3.12-7.378 7.489 0 4.368 3.07 7.504 7.378 7.504Zm-34.51-.014c1.632 0 3.088-.537 4.238-1.47l.414.994h3.739V5.853h-3.605l-.495 1.087c-1.16-.958-2.637-1.51-4.29-1.51C3.069 5.43 0 8.527 0 12.88c0 4.37 3.07 7.505 7.363 7.505Zm.647-4.287c-1.811 0-3.143-1.37-3.143-3.206 0-1.824 1.32-3.195 3.143-3.195 1.812 0 3.143 1.37 3.143 3.195 0 1.836-1.331 3.206-3.143 3.206Zm24.445-2.208c0 3.933-2.762 6.495-6.91 6.495s-6.926-2.562-6.926-6.495V5.868h4.837v7.811c0 1.484.797 2.356 2.089 2.356 1.292 0 2.074-.887 2.074-2.356V5.868h4.836v8.022Zm6.922-.994c0 1.836 1.331 3.217 3.143 3.217 1.812 0 3.143-1.381 3.143-3.217 0-1.835-1.331-3.216-3.143-3.216-1.812 0-3.143 1.38-3.143 3.216Zm18.637-7.028v14.056h-4.837V5.868h4.837Zm10.096 14.517c4.564 0 7.873-3.147 7.873-7.489 0-4.357-3.31-7.489-7.873-7.489-4.577 0-7.872 3.132-7.872 7.489 0 4.342 3.294 7.489 7.872 7.489Zm-3.028-7.489c0 1.859 1.265 3.14 3.028 3.14 1.764 0 3.029-1.281 3.029-3.14 0-1.847-1.265-3.139-3.029-3.139-1.763 0-3.028 1.281-3.028 3.14ZM82.998 25v-5.534a6.56 6.56 0 0 0 3.423.934c4.293 0 7.362-3.125 7.362-7.504 0-4.38-3.069-7.489-7.362-7.489-1.669 0-3.155.578-4.31 1.578l-.605-1.117h-3.29V25h4.782Zm-.367-12.104c0 1.846 1.331 3.217 3.143 3.217 1.8 0 3.143-1.37 3.143-3.217s-1.332-3.217-3.143-3.217c-1.812 0-3.143 1.37-3.143 3.217Zm18.208 7.028v-7.506c0-1.804.912-2.843 2.376-2.843 1.262 0 1.831.826 1.831 2.447v7.902h4.836V11.46c0-3.644-2.071-6.008-5.295-6.008a5.988 5.988 0 0 0-3.748 1.34v-6h-4.837v19.132h4.837ZM117.574 0v4.109h-4.763V0h4.763Zm.037 5.868h-4.837v14.056h4.837V5.868Zm7.878-5.076v19.132h-4.836V.792h4.836Zm9.851 19.593c3.523 0 6.364-2.004 7.352-5.212h-4.813c-.465.823-1.409 1.318-2.539 1.318-1.527 0-2.55-.834-2.866-2.446H142.9c.063-.435.1-.858.1-1.282 0-4.123-3.134-7.356-7.66-7.356-4.407 0-7.626 3.17-7.626 7.478 0 4.295 3.245 7.5 7.626 7.5Zm-2.781-9.021h5.677C137.811 9.959 136.8 9.2 135.34 9.2c-1.409 0-2.389.767-2.781 2.163Z" clip-rule="evenodd"/></svg>